<svg version="1.1" id="Layer_1" xmlns="http://www.w3.org/2000/svg" xmlns:xlink="http://www.w3.org/1999/xlink" x="0px" y="0px"
	 width="100%" viewBox="0 0 500 500" enable-background="new 0 0 500 500" xml:space="preserve">
<path fill="#00357A" opacity="1.000000" stroke="none" 
	d="
M277.000000,501.000000 
	C184.666687,501.000000 92.833374,501.000000 1.000049,501.000000 
	C1.000033,334.333405 1.000033,167.666794 1.000016,1.000139 
	C167.666565,1.000093 334.333130,1.000093 500.999756,1.000046 
	C500.999847,167.666519 500.999847,334.333038 500.999939,500.999786 
	C426.500000,501.000000 352.000000,501.000000 277.000000,501.000000 
M363.731720,191.196259 
	C363.814606,191.049118 363.897491,190.901962 363.980347,190.754807 
	C363.950989,190.895477 363.921631,191.036148 364.311981,191.711609 
	C366.188629,195.500076 369.321503,199.168182 369.698212,203.100357 
	C370.691406,213.466843 371.093750,223.981522 370.518738,234.370071 
	C370.207001,240.002548 367.418488,245.497910 365.760895,251.009674 
	C366.552856,250.798920 368.671326,250.589767 370.453125,249.703674 
	C382.414215,243.755310 387.962555,233.611099 387.810944,220.653152 
	C387.659027,207.668594 381.801300,197.706528 369.634430,192.166595 
	C367.955658,191.402206 365.860931,191.551376 363.731720,191.196259 
M216.168716,235.604782 
	C216.018021,228.468750 211.138763,224.265152 206.306366,220.203354 
	C201.103317,215.830017 195.274673,212.160767 190.326202,207.534775 
	C183.873642,201.502716 184.328659,196.170746 190.810730,190.027283 
	C186.499420,190.868118 182.059158,191.572693 178.113052,193.365112 
	C169.774017,197.152954 167.626358,205.356918 173.065704,212.747345 
	C175.682693,216.303055 179.124008,219.329773 182.512466,222.220444 
	C186.801926,225.879807 191.599136,228.947891 195.852798,232.644470 
	C203.439651,239.237640 203.821548,243.398422 198.108444,251.123672 
	C208.248962,250.316299 214.933868,244.847763 216.168716,235.604782 
M321.173828,236.169983 
	C318.816437,231.050476 316.459076,225.930954 314.173615,220.967590 
	C323.922363,218.722855 329.596710,211.614365 327.950562,202.758942 
	C326.309631,193.931503 317.543091,188.989410 306.288483,190.547058 
	C312.275513,197.371078 313.951782,205.297272 311.351166,213.000183 
	C309.385681,218.821869 305.412750,221.467224 299.764343,221.092743 
	C301.240570,226.412247 302.283356,231.662857 304.178833,236.585114 
	C306.120514,241.627365 308.195648,246.898010 311.473938,251.079666 
	C316.288269,257.220642 325.943481,257.363129 331.201202,252.792282 
	C329.493622,251.196594 327.222107,249.851135 326.106201,247.858490 
	C324.179077,244.417374 322.969696,240.574280 321.173828,236.169983 
M283.989807,252.001663 
	C289.258179,252.001663 294.526581,252.001663 299.042511,252.001663 
	C298.403412,248.793243 297.378265,245.856979 297.310486,242.898804 
	C297.092987,233.406601 297.229462,223.906281 297.229401,214.409103 
	C297.229401,206.457657 297.229431,198.506226 297.229431,190.325302 
	C290.960419,190.325302 285.177277,190.325302 280.246460,190.325302 
	C280.762054,193.761566 281.723480,197.365189 281.770721,200.980774 
	C281.953522,214.974228 281.944183,228.972748 281.764648,242.966309 
	C281.726868,245.912872 280.666016,248.846313 280.033295,252.001663 
	C280.575439,252.001663 281.859894,252.001663 283.989807,252.001663 
M237.770569,216.499893 
	C237.770508,225.310074 237.912582,234.123840 237.690948,242.928452 
	C237.616409,245.889893 236.617264,248.828049 236.041519,251.772797 
	C242.108978,251.772797 248.949951,251.772797 255.115631,251.772797 
	C254.476212,248.885132 253.448639,246.125610 253.330154,243.327591 
	C253.063141,237.022171 253.246048,230.697693 253.246017,224.380966 
	C253.245956,213.117508 253.246002,201.854050 253.246002,190.371628 
	C247.908417,190.371628 243.026993,190.371628 237.770569,190.371628 
	C237.770569,198.933044 237.770569,207.216461 237.770569,216.499893 
M144.494858,191.278854 
	C141.251312,199.956512 138.007767,208.634186 134.773148,217.288010 
	C140.309998,219.936539 148.446457,245.500809 146.004959,251.803680 
	C153.055161,251.803680 160.126007,251.803680 166.355942,251.803680 
	C159.271317,231.842316 152.155823,211.793915 144.494858,191.278854 
M333.003662,213.637054 
	C329.870270,232.231384 340.493652,250.325974 354.159607,250.662384 
	C346.603027,230.767975 346.024231,210.914185 354.666809,191.188217 
	C345.239563,192.225708 337.362854,199.971710 333.003662,213.637054 
M185.572189,244.305099 
	C186.106384,243.670807 186.710098,243.082382 187.163467,242.394791 
	C190.070648,237.985840 189.600128,233.087204 185.989304,229.787430 
	C182.588089,226.679260 177.796265,226.423752 174.111908,229.154099 
	C170.207809,232.047272 168.987457,237.133530 171.409027,241.604797 
	C173.994659,246.378998 178.214157,248.983643 183.387573,250.284683 
	C184.035278,248.216766 184.552490,246.565430 185.572189,244.305099 
M301.968903,264.436554 
	C301.023315,267.030670 300.077728,269.624786 298.875458,272.923035 
	C296.902496,267.971466 295.261108,263.852081 293.619720,259.732697 
	C293.042236,259.973633 292.464752,260.214569 291.887238,260.455536 
	C293.411133,265.119873 294.852173,269.814240 296.523438,274.425140 
	C296.891083,275.439606 298.075989,276.157867 298.884521,277.012512 
	C299.562744,276.177582 300.495178,275.443146 300.872223,274.489197 
	C302.080719,271.431396 303.083649,268.292389 304.563354,264.043549 
	C306.144165,268.616302 307.114532,271.974976 308.542114,275.126495 
	C308.859802,275.827728 311.787537,276.168518 311.829529,276.054596 
	C313.731720,270.893341 315.446075,265.662842 317.182434,260.440460 
	C316.593567,260.214661 316.004700,259.988861 315.415833,259.763092 
	C313.820251,263.886353 312.224670,268.009613 310.335205,272.892334 
	C308.494263,268.069183 306.909180,263.916382 305.324097,259.763580 
	C304.870544,259.805237 304.416962,259.846893 303.963379,259.888550 
	C303.363739,261.156647 302.764099,262.424744 301.968903,264.436554 
M336.377258,270.005127 
	C335.132416,267.139984 334.601105,263.479736 332.487396,261.582825 
	C328.631073,258.122009 322.117126,260.009003 319.665375,264.485535 
	C317.289734,268.822968 319.015503,274.132935 323.509613,276.313995 
	C328.724030,278.844635 333.566986,276.719238 336.377258,270.005127 
M342.888885,273.554108 
	C345.351532,270.881836 347.408173,271.419342 349.456451,274.172119 
	C350.362762,275.390167 351.733276,276.262817 352.893066,277.292267 
	C353.142120,276.969574 353.391174,276.646851 353.640228,276.324127 
	C352.663849,274.799896 351.687439,273.275635 350.711029,271.751373 
	C351.234436,271.758240 351.757812,271.765076 352.281189,271.771942 
	C352.531036,268.845184 354.009064,265.181152 352.783691,263.140015 
	C349.935852,258.396179 344.821655,260.149231 340.478577,260.304535 
	C340.478577,266.201935 340.478577,271.537567 340.478577,276.873199 
	C340.889038,276.988586 341.299530,277.103973 341.709991,277.219360 
	C342.096344,276.284180 342.482727,275.349030 342.888885,273.554108 
M387.707001,271.712616 
	C388.976807,262.197662 382.884308,257.941528 372.322174,260.785706 
	C372.322174,266.215302 372.322174,271.589294 372.322174,277.038147 
	C377.977448,276.772064 383.876007,278.577118 387.707001,271.712616 
M205.494263,194.993835 
	C207.637970,197.933105 209.781677,200.872391 212.010193,203.927948 
	C212.010193,199.583420 212.010193,195.328598 212.010193,191.175568 
	C208.103119,191.175568 204.413849,191.175568 200.332153,191.175568 
	C202.155670,192.472519 203.566315,193.475815 205.494263,194.993835 
M232.011871,190.900162 
	C232.171692,190.689438 232.331497,190.478729 232.491318,190.268036 
	C232.330856,190.227478 232.170441,190.151733 232.009903,190.151489 
	C227.763443,190.145020 223.516983,190.146347 219.267319,190.146347 
	C219.267319,194.953705 219.267319,199.269302 219.267319,202.217102 
	C223.033661,198.782013 227.276337,194.912491 232.011871,190.900162 
M272.062439,199.128815 
	C272.062439,196.209122 272.062439,193.289444 272.062439,190.227814 
	C267.256897,190.227814 263.049103,190.227814 260.006653,190.227814 
	C263.743530,194.195312 267.934662,198.645096 272.062439,203.027618 
	C272.062439,202.253403 272.062439,201.126877 272.062439,199.128815 
M127.810822,247.566650 
	C127.113098,246.085342 126.415375,244.604034 125.914940,243.541595 
	C122.865051,246.366302 119.847740,249.160828 116.990471,251.807144 
	C121.627373,251.807144 126.527412,251.807144 132.014313,251.807144 
	C130.472565,250.344284 129.334610,249.264542 127.810822,247.566650 
M360.105225,267.520325 
	C359.990295,265.068634 359.875366,262.616974 359.760437,260.165283 
	C359.297424,260.192780 358.834412,260.220245 358.371399,260.247742 
	C358.371399,265.669495 358.371399,271.091248 358.371399,276.289490 
	C361.878082,276.289490 365.490906,276.289490 369.103729,276.289490 
	C369.087372,275.926392 369.071045,275.563293 369.054688,275.200195 
	C366.179199,275.031647 363.303741,274.863129 360.105255,274.675659 
	C360.105255,272.383820 360.105255,270.421570 360.105225,267.520325 
z"/>
<path fill="#FAFBFD" opacity="1.000000" stroke="none" 
	d="
M216.167999,235.977783 
	C214.933868,244.847763 208.248962,250.316299 198.108444,251.123672 
	C203.821548,243.398422 203.439651,239.237640 195.852798,232.644470 
	C191.599136,228.947891 186.801926,225.879807 182.512466,222.220444 
	C179.124008,219.329773 175.682693,216.303055 173.065704,212.747345 
	C167.626358,205.356918 169.774017,197.152954 178.113052,193.365112 
	C182.059158,191.572693 186.499420,190.868118 190.810730,190.027283 
	C184.328659,196.170746 183.873642,201.502716 190.326202,207.534775 
	C195.274673,212.160767 201.103317,215.830017 206.306366,220.203354 
	C211.138763,224.265152 216.018021,228.468750 216.167999,235.977783 
z"/>
<path fill="#F9FBFC" opacity="1.000000" stroke="none" 
	d="
M321.316528,236.534897 
	C322.969696,240.574280 324.179077,244.417374 326.106201,247.858490 
	C327.222107,249.851135 329.493622,251.196594 331.201202,252.792282 
	C325.943481,257.363129 316.288269,257.220642 311.473938,251.079666 
	C308.195648,246.898010 306.120514,241.627365 304.178833,236.585114 
	C302.283356,231.662857 301.240570,226.412247 299.764343,221.092743 
	C305.412750,221.467224 309.385681,218.821869 311.351166,213.000183 
	C313.951782,205.297272 312.275513,197.371078 306.288483,190.547058 
	C317.543091,188.989410 326.309631,193.931503 327.950562,202.758942 
	C329.596710,211.614365 323.922363,218.722855 314.173615,220.967590 
	C316.459076,225.930954 318.816437,231.050476 321.316528,236.534897 
z"/>
<path fill="#FEFEFE" opacity="1.000000" stroke="none" 
	d="
M283.567078,252.001663 
	C281.859894,252.001663 280.575439,252.001663 280.033295,252.001663 
	C280.666016,248.846313 281.726868,245.912872 281.764648,242.966309 
	C281.944183,228.972748 281.953522,214.974228 281.770721,200.980774 
	C281.723480,197.365189 280.762054,193.761566 280.246460,190.325302 
	C285.177277,190.325302 290.960419,190.325302 297.229431,190.325302 
	C297.229431,198.506226 297.229401,206.457657 297.229401,214.409103 
	C297.229462,223.906281 297.092987,233.406601 297.310486,242.898804 
	C297.378265,245.856979 298.403412,248.793243 299.042511,252.001663 
	C294.526581,252.001663 289.258179,252.001663 283.567078,252.001663 
z"/>
<path fill="#FEFEFE" opacity="1.000000" stroke="none" 
	d="
M237.770569,215.999878 
	C237.770569,207.216461 237.770569,198.933044 237.770569,190.371628 
	C243.026993,190.371628 247.908417,190.371628 253.246002,190.371628 
	C253.246002,201.854050 253.245956,213.117508 253.246017,224.380966 
	C253.246048,230.697693 253.063141,237.022171 253.330154,243.327591 
	C253.448639,246.125610 254.476212,248.885132 255.115631,251.772797 
	C248.949951,251.772797 242.108978,251.772797 236.041519,251.772797 
	C236.617264,248.828049 237.616409,245.889893 237.690948,242.928452 
	C237.912582,234.123840 237.770508,225.310074 237.770569,215.999878 
z"/>
<path fill="#FAFBFC" opacity="1.000000" stroke="none" 
	d="
M144.767578,191.512192 
	C152.155823,211.793915 159.271317,231.842316 166.355942,251.803680 
	C160.126007,251.803680 153.055161,251.803680 146.004959,251.803680 
	C148.446457,245.500809 140.309998,219.936539 134.773148,217.288010 
	C138.007767,208.634186 141.251312,199.956512 144.767578,191.512192 
z"/>
<path fill="#F8F9FB" opacity="1.000000" stroke="none" 
	d="
M363.958771,191.277603 
	C365.860931,191.551376 367.955658,191.402206 369.634430,192.166595 
	C381.801300,197.706528 387.659027,207.668594 387.810944,220.653152 
	C387.962555,233.611099 382.414215,243.755310 370.453125,249.703674 
	C368.671326,250.589767 366.552856,250.798920 365.760895,251.009674 
	C367.418488,245.497910 370.207001,240.002548 370.518738,234.370071 
	C371.093750,223.981522 370.691406,213.466843 369.698212,203.100357 
	C369.321503,199.168182 366.188629,195.500076 364.132568,191.460297 
	C363.953125,191.209000 363.958771,191.277603 363.958771,191.277603 
z"/>
<path fill="#F9FAFC" opacity="1.000000" stroke="none" 
	d="
M333.068634,213.226288 
	C337.362854,199.971710 345.239563,192.225708 354.666809,191.188217 
	C346.024231,210.914185 346.603027,230.767975 354.159607,250.662384 
	C340.493652,250.325974 329.870270,232.231384 333.068634,213.226288 
z"/>
<path fill="#F9FAFC" opacity="1.000000" stroke="none" 
	d="
M185.320953,244.609589 
	C184.552490,246.565430 184.035278,248.216766 183.387573,250.284683 
	C178.214157,248.983643 173.994659,246.378998 171.409027,241.604797 
	C168.987457,237.133530 170.207809,232.047272 174.111908,229.154099 
	C177.796265,226.423752 182.588089,226.679260 185.989304,229.787430 
	C189.600128,233.087204 190.070648,237.985840 187.163467,242.394791 
	C186.710098,243.082382 186.106384,243.670807 185.320953,244.609589 
z"/>
<path fill="#E6EBF2" opacity="1.000000" stroke="none" 
	d="
M302.066650,264.064697 
	C302.764099,262.424744 303.363739,261.156647 303.963379,259.888550 
	C304.416962,259.846893 304.870544,259.805237 305.324097,259.763580 
	C306.909180,263.916382 308.494263,268.069183 310.335205,272.892334 
	C312.224670,268.009613 313.820251,263.886353 315.415833,259.763092 
	C316.004700,259.988861 316.593567,260.214661 317.182434,260.440460 
	C315.446075,265.662842 313.731720,270.893341 311.829529,276.054596 
	C311.787537,276.168518 308.859802,275.827728 308.542114,275.126495 
	C307.114532,271.974976 306.144165,268.616302 304.563354,264.043549 
	C303.083649,268.292389 302.080719,271.431396 300.872223,274.489197 
	C300.495178,275.443146 299.562744,276.177582 298.884521,277.012512 
	C298.075989,276.157867 296.891083,275.439606 296.523438,274.425140 
	C294.852173,269.814240 293.411133,265.119873 291.887238,260.455536 
	C292.464752,260.214569 293.042236,259.973633 293.619720,259.732697 
	C295.261108,263.852081 296.902496,267.971466 298.875458,272.923035 
	C300.077728,269.624786 301.023315,267.030670 302.066650,264.064697 
z"/>
<path fill="#E6EBF2" opacity="1.000000" stroke="none" 
	d="
M336.301636,270.369202 
	C333.566986,276.719238 328.724030,278.844635 323.509613,276.313995 
	C319.015503,274.132935 317.289734,268.822968 319.665375,264.485535 
	C322.117126,260.009003 328.631073,258.122009 332.487396,261.582825 
	C334.601105,263.479736 335.132416,267.139984 336.301636,270.369202 
M333.203888,265.538483 
	C330.920868,262.079132 327.820068,261.147125 324.256470,263.197540 
	C321.351990,264.868713 319.838257,268.012512 321.736450,270.745697 
	C323.142975,272.770996 326.279938,274.547089 328.735474,274.671692 
	C332.580353,274.866730 334.191833,271.422546 333.203888,265.538483 
z"/>
<path fill="#D9E1EB" opacity="1.000000" stroke="none" 
	d="
M342.878967,273.983978 
	C342.482727,275.349030 342.096344,276.284180 341.709991,277.219360 
	C341.299530,277.103973 340.889038,276.988586 340.478577,276.873199 
	C340.478577,271.537567 340.478577,266.201935 340.478577,260.304535 
	C344.821655,260.149231 349.935852,258.396179 352.783691,263.140015 
	C354.009064,265.181152 352.531036,268.845184 352.281189,271.771942 
	C351.757812,271.765076 351.234436,271.758240 350.711029,271.751373 
	C351.687439,273.275635 352.663849,274.799896 353.640228,276.324127 
	C353.391174,276.646851 353.142120,276.969574 352.893066,277.292267 
	C351.733276,276.262817 350.362762,275.390167 349.456451,274.172119 
	C347.408173,271.419342 345.351532,270.881836 342.878967,273.983978 
M344.514618,262.294128 
	C343.801514,264.620026 343.088409,266.945923 342.197144,269.852905 
	C346.464111,269.618164 350.324341,270.946777 351.043884,266.520569 
	C351.711548,262.413452 348.218781,262.433472 344.514618,262.294128 
z"/>
<path fill="#E6EBF2" opacity="1.000000" stroke="none" 
	d="
M387.504974,272.061035 
	C383.876007,278.577118 377.977448,276.772064 372.322174,277.038147 
	C372.322174,271.589294 372.322174,266.215302 372.322174,260.785706 
	C382.884308,257.941528 388.976807,262.197662 387.504974,272.061035 
M379.101318,262.264038 
	C377.675293,262.331787 376.249298,262.399536 374.645569,262.475739 
	C374.645569,266.761719 374.645569,270.664185 374.645569,274.536041 
	C381.458862,275.322540 384.657898,274.084473 385.476227,270.116150 
	C386.389832,265.685791 384.114197,263.253876 379.101318,262.264038 
z"/>
<path fill="#F0F3F7" opacity="1.000000" stroke="none" 
	d="
M205.235611,194.736481 
	C203.566315,193.475815 202.155670,192.472519 200.332153,191.175568 
	C204.413849,191.175568 208.103119,191.175568 212.010193,191.175568 
	C212.010193,195.328598 212.010193,199.583420 212.010193,203.927948 
	C209.781677,200.872391 207.637970,197.933105 205.235611,194.736481 
z"/>
<path fill="#F0F3F7" opacity="1.000000" stroke="none" 
	d="
M231.765442,190.971558 
	C227.276337,194.912491 223.033661,198.782013 219.267319,202.217102 
	C219.267319,199.269302 219.267319,194.953705 219.267319,190.146347 
	C223.516983,190.146347 227.763443,190.145020 232.009903,190.151489 
	C232.170441,190.151733 232.330856,190.227478 232.491302,190.268036 
	C232.331497,190.478729 232.171692,190.689438 231.765442,190.971558 
z"/>
<path fill="#F0F3F7" opacity="1.000000" stroke="none" 
	d="
M272.062439,199.564575 
	C272.062439,201.126877 272.062439,202.253403 272.062439,203.027618 
	C267.934662,198.645096 263.743530,194.195312 260.006653,190.227814 
	C263.049103,190.227814 267.256897,190.227814 272.062439,190.227814 
	C272.062439,193.289444 272.062439,196.209122 272.062439,199.564575 
z"/>
<path fill="#F8F9FB" opacity="1.000000" stroke="none" 
	d="
M128.003738,247.875732 
	C129.334610,249.264542 130.472565,250.344284 132.014313,251.807144 
	C126.527412,251.807144 121.627373,251.807144 116.990471,251.807144 
	C119.847740,249.160828 122.865051,246.366302 125.914940,243.541595 
	C126.415375,244.604034 127.113098,246.085342 128.003738,247.875732 
z"/>
<path fill="#FEFEFE" opacity="1.000000" stroke="none" 
	d="
M360.105225,267.989807 
	C360.105255,270.421570 360.105255,272.383820 360.105255,274.675659 
	C363.303741,274.863129 366.179199,275.031647 369.054688,275.200195 
	C369.071045,275.563293 369.087372,275.926392 369.103729,276.289490 
	C365.490906,276.289490 361.878082,276.289490 358.371399,276.289490 
	C358.371399,271.091248 358.371399,265.669495 358.371399,260.247742 
	C358.834412,260.220245 359.297424,260.192780 359.760437,260.165283 
	C359.875366,262.616974 359.990295,265.068634 360.105225,267.989807 
z"/>
<path fill="#F8F9FB" opacity="1.000000" stroke="none" 
	d="
M363.922699,191.192902 
	C363.921631,191.036148 363.950989,190.895477 363.980347,190.754807 
	C363.897491,190.901962 363.814606,191.049118 363.845245,191.236938 
	C363.958771,191.277603 363.953125,191.209000 363.922699,191.192902 
z"/>
<path fill="#0A3D7F" opacity="1.000000" stroke="none" 
	d="
M333.401611,265.876465 
	C334.191833,271.422546 332.580353,274.866730 328.735474,274.671692 
	C326.279938,274.547089 323.142975,272.770996 321.736450,270.745697 
	C319.838257,268.012512 321.351990,264.868713 324.256470,263.197540 
	C327.820068,261.147125 330.920868,262.079132 333.401611,265.876465 
z"/>
<path fill="#0A3D7F" opacity="1.000000" stroke="none" 
	d="
M344.934448,262.285278 
	C348.218781,262.433472 351.711548,262.413452 351.043884,266.520569 
	C350.324341,270.946777 346.464111,269.618164 342.197144,269.852905 
	C343.088409,266.945923 343.801514,264.620026 344.934448,262.285278 
z"/>
<path fill="#124383" opacity="1.000000" stroke="none" 
	d="
M379.502045,262.309265 
	C384.114197,263.253876 386.389832,265.685791 385.476227,270.116150 
	C384.657898,274.084473 381.458862,275.322540 374.645569,274.536041 
	C374.645569,270.664185 374.645569,266.761719 374.645569,262.475739 
	C376.249298,262.399536 377.675293,262.331787 379.502045,262.309265 
z"/>
</svg>